<?xml version="1.0" encoding="UTF-8" standalone="no"?>
<svg
   xmlns:dc="http://purl.org/dc/elements/1.1/"
   xmlns:cc="http://creativecommons.org/ns#"
   xmlns:rdf="http://www.w3.org/1999/02/22-rdf-syntax-ns#"
   xmlns:svg="http://www.w3.org/2000/svg"
   xmlns="http://www.w3.org/2000/svg"
   xmlns:xlink="http://www.w3.org/1999/xlink"
   xmlns:sodipodi="http://sodipodi.sourceforge.net/DTD/sodipodi-0.dtd"
   xmlns:inkscape="http://www.inkscape.org/namespaces/inkscape"
   width="9.9999997e-06in"
   height="9.9999997e-06in"
   viewBox="0 0 0.00025399999 0.00025399999"
   version="1.1"
   id="svg8"
   sodipodi:docname="logo.svg"
   inkscape:version="1.0.2 (e86c870879, 2021-01-15)">
  <defs
     id="defs2">
    <rect
       x="1.4367951"
       y="188.77614"
       width="57.378841"
       height="15.495005"
       id="rect1417" />
    <inkscape:path-effect
       effect="fillet_chamfer"
       id="path-effect1413"
       is_visible="true"
       lpeversion="1"
       satellites_param="F,0,0,1,0,10.443761,0,1 @ F,0,0,1,0,0,0,1 @ F,0,0,1,0,0,0,1 @ F,0,0,1,0,11.609583,0,1"
       unit="px"
       method="auto"
       mode="F"
       radius="0"
       chamfer_steps="1"
       flexible="false"
       use_knot_distance="true"
       apply_no_radius="true"
       apply_with_radius="true"
       only_selected="false"
       hide_knots="false" />
    <inkscape:path-effect
       effect="fillet_chamfer"
       id="path-effect1386"
       is_visible="true"
       lpeversion="1"
       satellites_param="F,1,0,1,0,0,0,1 @ F,1,0,1,0,0,0,1 @ F,1,0,1,0,0,0,1 @ F,1,0,1,0,0,0,1"
       unit="px"
       method="auto"
       mode="F"
       radius="0"
       chamfer_steps="1"
       flexible="true"
       use_knot_distance="true"
       apply_no_radius="true"
       apply_with_radius="true"
       only_selected="false"
       hide_knots="false" />
    <linearGradient
       inkscape:collect="always"
       id="linearGradient1274">
      <stop
         style="stop-color:#ffd42a;stop-opacity:1;"
         offset="0"
         id="stop1270" />
      <stop
         style="stop-color:#ffd42a;stop-opacity:0;"
         offset="1"
         id="stop1272" />
    </linearGradient>
    <rect
       x="34.452808"
       y="209.84863"
       width="92.077744"
       height="11.233672"
       id="rect863" />
    <rect
       x="19.241579"
       y="19.876066"
       width="122.35003"
       height="24.279898"
       id="rect16" />
    <inkscape:path-effect
       effect="fillet_chamfer"
       id="path-effect12"
       is_visible="true"
       lpeversion="1"
       satellites_param="F,0,0,1,0,0,0,1 @ F,0,0,1,0,0,0,1 @ F,0,0,1,0,45.53541,0,1 @ F,0,0,1,0,0,0,1"
       unit="px"
       method="auto"
       mode="F"
       radius="0"
       chamfer_steps="1"
       flexible="false"
       use_knot_distance="true"
       apply_no_radius="true"
       apply_with_radius="true"
       only_selected="false"
       hide_knots="false" />
    <radialGradient
       inkscape:collect="always"
       xlink:href="#linearGradient1274"
       id="radialGradient1276"
       cx="-971.10687"
       cy="466.14832"
       fx="-971.10687"
       fy="466.14832"
       r="52.333584"
       gradientTransform="matrix(0.46733939,0.02963027,-0.01306799,0.21375818,206.9003,53.868601)"
       gradientUnits="userSpaceOnUse" />
  </defs>
  <sodipodi:namedview
     id="base"
     pagecolor="#ffffff"
     bordercolor="#666666"
     borderopacity="1.0"
     inkscape:pageopacity="0.0"
     inkscape:pageshadow="2"
     inkscape:zoom="0.49497475"
     inkscape:cx="1535.9464"
     inkscape:cy="693.54674"
     inkscape:document-units="mm"
     inkscape:current-layer="layer1"
     inkscape:document-rotation="0"
     showgrid="false"
     units="in"
     inkscape:window-width="1920"
     inkscape:window-height="1009"
     inkscape:window-x="0"
     inkscape:window-y="0"
     inkscape:window-maximized="1" />
  <metadata
     id="metadata5">
    <rdf:RDF>
      <cc:Work
         rdf:about="">
        <dc:format>image/svg+xml</dc:format>
        <dc:type
           rdf:resource="http://purl.org/dc/dcmitype/StillImage" />
        <dc:title></dc:title>
      </cc:Work>
    </rdf:RDF>
  </metadata>
  <g
     inkscape:label="Layer 1"
     inkscape:groupmode="layer"
     id="layer1">
    <g
       id="g1328"
       transform="matrix(-1.2693242,0,0,1.3884027,-60.695227,9.348142)">
      <g
         id="g1025"
         transform="translate(23.068019,-0.59126259)">
        <g
           id="g928"
           transform="translate(94.78865,11.968389)"
           style="fill:#ff9955">
          <circle
             style="fill:#ffb380;fill-opacity:0.832183;stroke:none;stroke-width:0.239237"
             id="circle903"
             cy="96.72921"
             cx="-325.88519"
             r="8.9551334" />
          <path
             id="path901"
             style="fill:#ff0000;fill-opacity:0.832183;stroke:none;stroke-width:0.999999"
             d="m -1231.8398,328.1582 c -20.6156,0.0809 -37.2851,16.81589 -37.2852,37.43164 3e-4,0.32752 -0.014,-0.3274 0,0 l 27.9612,0.98243 c 5.8114,0.20419 9.2441,4.81748 10.4961,10.49609 l 5.2962,24.02122 c 8.9624,9.26252 32.0196,-20.6921 30.2931,-36.07515 -3e-4,-20.67279 -15.9395,-36.85592 -36.6123,-36.85623 -0.05,-1e-4 -0.099,-1e-4 -0.1484,0 z"
             transform="scale(0.26458333)"
             sodipodi:nodetypes="cccssccscc" />
        </g>
        <rect
           style="fill:#1a1a1a;fill-opacity:1;stroke:none;stroke-width:0.223668"
           id="rect991"
           width="13.383579"
           height="6.9421215"
           x="-241.26508"
           y="106.44413"
           ry="1.8027333" />
        <path
           id="rect918"
           style="fill:#f9f9f9;fill-opacity:0.79464;stroke:none;stroke-width:0.112271"
           d="m -234.18863,106.44296 -2.92551,6.94225 h 2.1312 l 2.9255,-6.94225 z m 2.9847,0 -2.92549,6.94225 h 1.53988 l 2.9255,-6.94225 z" />
      </g>
      <path
         id="rect1011"
         style="fill:#000000;fill-opacity:1;stroke:none;stroke-width:0.264583"
         d="m -234.33039,129.20917 c -3.18359,-0.74451 -10.46101,2.80993 -10.46101,6.07941 -0.17882,0.80125 9.62202,-2.32705 12.8753,-2.10591 6.26212,1.06794 11.36026,5.12746 11.5651,9.35515 2.85597,7.01537 18.50023,7.33756 19.61088,0.52513 2.2e-4,-4.55091 16.24286,-8.87721 20.79378,-8.87743 1.17316,5e-5 2.33279,0.25058 3.40134,0.73484 -0.97265,-1.9167 -4.49457,-3.57385 -6.68395,-2.8548 -15.6214,5.13045 -34.46921,1.03318 -51.10144,-2.85639 z"
         sodipodi:nodetypes="sccccccss" />
      <g
         id="g1083">
        <g
           id="g1089"
           transform="translate(-1.8224865,-0.0581308)">
          <path
             id="path1027"
             style="fill:#000000;fill-opacity:1;stroke:none;stroke-width:0.264583"
             d="m -234.59105,135.52099 a 11.270099,11.270099 0 0 0 -11.27011,11.27012 11.270099,11.270099 0 0 0 11.27011,11.27011 11.270099,11.270099 0 0 0 11.27011,-11.27011 11.270099,11.270099 0 0 0 -11.27011,-11.27012 z m 0,5.29942 a 5.9704779,5.9704779 0 0 1 5.9707,5.9707 5.9704779,5.9704779 0 0 1 -5.9707,5.97069 5.9704779,5.9704779 0 0 1 -5.97018,-5.97069 5.9704779,5.9704779 0 0 1 5.97018,-5.9707 z" />
          <circle
             style="fill:#4d4d4d;fill-opacity:1;stroke:none;stroke-width:0.0824443"
             id="circle1029"
             cx="-234.5909"
             cy="146.79109"
             r="3.5117786" />
        </g>
      </g>
      <g
         id="g1099"
         transform="translate(50.270859,1.0583333)">
        <g
           id="g1097"
           transform="translate(-1.8224865,-0.0581308)">
          <path
             id="path1093"
             style="fill:#000000;fill-opacity:1;stroke:none;stroke-width:0.264583"
             d="m -234.59105,135.52099 a 11.270099,11.270099 0 0 0 -11.27011,11.27012 11.270099,11.270099 0 0 0 11.27011,11.27011 11.270099,11.270099 0 0 0 11.27011,-11.27011 11.270099,11.270099 0 0 0 -11.27011,-11.27012 z m 0,5.29942 a 5.9704779,5.9704779 0 0 1 5.9707,5.9707 5.9704779,5.9704779 0 0 1 -5.9707,5.97069 5.9704779,5.9704779 0 0 1 -5.97018,-5.97069 5.9704779,5.9704779 0 0 1 5.97018,-5.9707 z" />
          <circle
             style="fill:#4d4d4d;fill-opacity:1;stroke:none;stroke-width:0.0824443"
             id="circle1095"
             cx="-234.5909"
             cy="146.79109"
             r="3.5117786" />
        </g>
      </g>
      <rect
         style="fill:#900080;fill-opacity:1;stroke:none;stroke-width:0.215012"
         id="rect1111"
         width="10.505635"
         height="18.581387"
         x="-239.93321"
         y="58.274353"
         ry="2.3542764"
         transform="matrix(0.96456059,-0.26386147,0.35562922,0.93462712,0,0)"
         inkscape:transform-center-x="4.4198983"
         inkscape:transform-center-y="1.5161491" />
      <rect
         style="fill:#e10080;fill-opacity:1;stroke:none;stroke-width:0.239106"
         id="rect1113"
         width="4.3245277"
         height="10.632374"
         x="-117.46167"
         y="192.49625"
         ry="2.2273483"
         transform="matrix(0.91898228,0.39429883,-0.51092489,0.85962536,0,0)"
         inkscape:transform-center-x="0.27314708"
         inkscape:transform-center-y="0.32077796" />
      <rect
         style="fill:#ffb380;fill-opacity:1;stroke:none;stroke-width:0.272683"
         id="rect1121"
         width="3.2973723"
         height="8.8748274"
         x="-190.38092"
         y="-150.88219"
         ry="2.3509984"
         transform="matrix(0.43647742,-0.89971521,0.95104938,0.30903897,0,0)"
         inkscape:transform-center-x="2.8542908"
         inkscape:transform-center-y="-0.25383951" />
      <g
         id="g1130">
        <rect
           style="fill:#000000;fill-opacity:1;stroke:none;stroke-width:0.230746"
           id="rect1085"
           width="1.9880313"
           height="26.576553"
           x="-143.93466"
           y="212.54503"
           ry="0.99401563"
           transform="rotate(27.191823)" />
        <g
           id="g1107"
           transform="matrix(0.48545444,0,0,0.48545444,-95.390222,71.047314)">
          <circle
             style="fill:#000000;fill-opacity:1;stroke:none;stroke-width:0.264583"
             id="path1101"
             cx="-265.26215"
             cy="108.76149"
             r="3.073946" />
          <circle
             style="fill:#808080;fill-opacity:1;stroke:none;stroke-width:0.124818"
             id="circle1103"
             cx="-265.26215"
             cy="108.76149"
             r="1.4501468" />
        </g>
      </g>
      <rect
         style="fill:#e10080;fill-opacity:1;stroke:none;stroke-width:0.266864"
         id="rect1117"
         width="4.3484049"
         height="13.171573"
         x="167.51195"
         y="182.27704"
         ry="2.7592785"
         transform="matrix(-0.17313904,0.98489739,-0.97652872,-0.21538725,0,0)"
         inkscape:transform-center-x="0.4786603"
         inkscape:transform-center-y="-0.17917365" />
      <rect
         style="fill:#000080;fill-opacity:1;stroke:none;stroke-width:0.274406"
         id="rect1132"
         width="17.686371"
         height="6.4643297"
         x="-211.62256"
         y="130.44614"
         ry="2.5288076" />
      <rect
         style="fill:#000080;fill-opacity:1;stroke:none;stroke-width:0.245607"
         id="rect1136"
         width="14.300292"
         height="5.6655951"
         x="32.775471"
         y="242.79289"
         ry="2.3921189"
         transform="matrix(0.41000861,0.91208165,-0.91103462,0.41232988,0,0)" />
      <ellipse
         style="fill:#4d4d4d;fill-opacity:1;stroke:none;stroke-width:0.264583"
         id="path1149"
         cx="-208.68678"
         cy="146.98184"
         rx="0.93927681"
         ry="0.97909826" />
      <rect
         style="fill:#000000;fill-opacity:1;stroke:none;stroke-width:0.331502"
         id="rect1151"
         width="1.4498783"
         height="16.681042"
         x="-236.42824"
         y="-89.839058"
         ry="1.0684444"
         transform="matrix(0.5536168,-0.83277154,0.75432941,0.65649611,0,0)" />
      <rect
         style="fill:#000000;fill-opacity:1;stroke:none;stroke-width:0.451414"
         id="rect1153"
         width="1.9551829"
         height="22.937468"
         x="-174.03162"
         y="-189.48741"
         ry="1.4691769"
         transform="matrix(0.11825534,-0.99298322,0.99023903,0.1393796,0,0)" />
      <g
         id="g1147"
         transform="matrix(1.1558947,-0.14637491,0.25921629,0.85652017,64.650077,9.898876)">
        <path
           id="rect1140"
           style="fill:#333333;fill-opacity:1;stroke:none;stroke-width:0.223746"
           d="m -260.11349,106.28287 h 2.34695 c 0.83537,0 1.40845,0.48518 1.50788,1.07834 l 0.69614,4.15268 c 0.0994,0.59315 -0.67251,1.07834 -1.50788,1.07834 h -2.34695 c -0.83536,0 -1.40845,-0.48519 -1.50788,-1.07834 l -0.69614,-4.15268 c -0.0994,-0.59316 0.67252,-1.07834 1.50788,-1.07834 z"
           sodipodi:nodetypes="sssssssss" />
        <rect
           style="fill:#333333;fill-opacity:1;stroke:none;stroke-width:0.283194"
           id="rect1143"
           width="9.3380938"
           height="3.5331769"
           x="-264.77548"
           y="110.66597"
           ry="1.5078815" />
      </g>
      <ellipse
         style="fill:#ffd42a;fill-opacity:1;stroke:none;stroke-width:0.199081"
         id="path1160"
         cx="-186.83957"
         cy="178.20642"
         rx="2.573427"
         ry="2.9443083"
         transform="matrix(0.9700099,0.2430654,-0.27588727,0.96119,0,0)" />
      <path
         id="path1155"
         style="fill:#000000;fill-opacity:1;stroke:none;stroke-width:0.16447"
         d="m -229.70401,122.57985 -2.2867,6.53939 a 3.4638847,3.4638847 0 0 0 4.40576,-2.12888 3.4638847,3.4638847 0 0 0 -2.11906,-4.41051 z" />
      <path
         style="fill:#c8ab37;fill-opacity:0;stroke:none;stroke-width:0.357143"
         d="m -973.57874,475.73126 c 0.0729,-23.29071 0.21979,-42.43393 0.32634,-42.54049 0.24758,-0.24758 104.61626,30.59422 104.61954,30.91594 0.001,0.13217 -1.17768,0.15106 -2.62008,0.042 -3.75238,-0.28379 -5.8879,0.49244 -8.47657,3.0811 -3.38651,3.38651 -4.57797,8.36772 -3.05983,12.7924 0.77208,2.25022 3.13199,4.81776 4.99255,5.4318 2.33939,0.77207 1.69273,1.67904 -1.98292,2.78119 -2.2375,0.67091 -2.55064,0.68403 -4.64286,0.19443 -3.05935,-0.71591 -9.51065,-0.4355 -13.29971,0.57808 -6.7571,1.80754 -15.3958,6.17459 -20.09863,10.1603 l -2.22623,1.88675 -26.16663,8.33627 c -14.39165,4.58495 -26.46609,8.41519 -26.8321,8.51164 -0.647,0.1705 -0.6618,-1.00051 -0.53287,-42.17138 z"
         id="path1226"
         transform="scale(0.26458333)" />
      <path
         style="fill:#c8ab37;fill-opacity:0;stroke:none;stroke-width:0.357143"
         d="m -973.57874,475.73126 c 0.0729,-23.29071 0.21979,-42.43393 0.32634,-42.54049 0.24758,-0.24758 104.61626,30.59422 104.61954,30.91594 0.001,0.13217 -1.17768,0.15106 -2.62008,0.042 -3.75238,-0.28379 -5.8879,0.49244 -8.47657,3.0811 -3.38651,3.38651 -4.57797,8.36772 -3.05983,12.7924 0.77208,2.25022 3.13199,4.81776 4.99255,5.4318 2.33939,0.77207 1.69273,1.67904 -1.98292,2.78119 -2.2375,0.67091 -2.55064,0.68403 -4.64286,0.19443 -3.05935,-0.71591 -9.51065,-0.4355 -13.29971,0.57808 -6.7571,1.80754 -15.3958,6.17459 -20.09863,10.1603 l -2.22623,1.88675 -26.16663,8.33627 c -14.39165,4.58495 -26.46609,8.41519 -26.8321,8.51164 -0.647,0.1705 -0.6618,-1.00051 -0.53287,-42.17138 z"
         id="path1228"
         transform="scale(0.26458333)" />
      <path
         style="fill:#c8ab37;fill-opacity:0;stroke:none;stroke-width:0.357143"
         d="m -973.57874,475.73126 c 0.0729,-23.29071 0.21979,-42.43393 0.32634,-42.54049 0.24758,-0.24758 104.61626,30.59422 104.61954,30.91594 0.001,0.13217 -1.17768,0.15106 -2.62008,0.042 -3.75238,-0.28379 -5.8879,0.49244 -8.47657,3.0811 -3.38651,3.38651 -4.57797,8.36772 -3.05983,12.7924 0.77208,2.25022 3.13199,4.81776 4.99255,5.4318 2.33939,0.77207 1.69273,1.67904 -1.98292,2.78119 -2.2375,0.67091 -2.55064,0.68403 -4.64286,0.19443 -3.05935,-0.71591 -9.51065,-0.4355 -13.29971,0.57808 -6.7571,1.80754 -15.3958,6.17459 -20.09863,10.1603 l -2.22623,1.88675 -26.16663,8.33627 c -14.39165,4.58495 -26.46609,8.41519 -26.8321,8.51164 -0.647,0.1705 -0.6618,-1.00051 -0.53287,-42.17138 z"
         id="path1230"
         transform="scale(0.26458333)" />
      <path
         style="fill:#c8ab37;fill-opacity:0;stroke:none;stroke-width:0.357143"
         d="m -973.57874,475.73126 c 0.0729,-23.29071 0.21979,-42.43393 0.32634,-42.54049 0.24758,-0.24758 104.61626,30.59422 104.61954,30.91594 0.001,0.13217 -1.17768,0.15106 -2.62008,0.042 -3.75238,-0.28379 -5.8879,0.49244 -8.47657,3.0811 -3.38651,3.38651 -4.57797,8.36772 -3.05983,12.7924 0.77208,2.25022 3.13199,4.81776 4.99255,5.4318 2.33939,0.77207 1.69273,1.67904 -1.98292,2.78119 -2.2375,0.67091 -2.55064,0.68403 -4.64286,0.19443 -3.05935,-0.71591 -9.51065,-0.4355 -13.29971,0.57808 -6.7571,1.80754 -15.3958,6.17459 -20.09863,10.1603 l -2.22623,1.88675 -26.16663,8.33627 c -14.39165,4.58495 -26.46609,8.41519 -26.8321,8.51164 -0.647,0.1705 -0.6618,-1.00051 -0.53287,-42.17138 z"
         id="path1232"
         transform="scale(0.26458333)" />
      <path
         style="fill:#c8ab37;fill-opacity:0;stroke:none;stroke-width:0.357143"
         d="m -973.57874,475.73126 c 0.0729,-23.29071 0.21979,-42.43393 0.32634,-42.54049 0.24758,-0.24758 104.61626,30.59422 104.61954,30.91594 0.001,0.13217 -1.17768,0.15106 -2.62008,0.042 -3.75238,-0.28379 -5.8879,0.49244 -8.47657,3.0811 -3.38651,3.38651 -4.57797,8.36772 -3.05983,12.7924 0.77208,2.25022 3.13199,4.81776 4.99255,5.4318 2.33939,0.77207 1.69273,1.67904 -1.98292,2.78119 -2.2375,0.67091 -2.55064,0.68403 -4.64286,0.19443 -3.05935,-0.71591 -9.51065,-0.4355 -13.29971,0.57808 -6.7571,1.80754 -15.3958,6.17459 -20.09863,10.1603 l -2.22623,1.88675 -26.16663,8.33627 c -14.39165,4.58495 -26.46609,8.41519 -26.8321,8.51164 -0.647,0.1705 -0.6618,-1.00051 -0.53287,-42.17138 z"
         id="path1234"
         transform="scale(0.26458333)" />
      <path
         style="fill:#c8ab37;fill-opacity:0;stroke:none;stroke-width:0.357143"
         d="m -878.09469,484.88654 c -4.63195,-2.45438 -6.32218,-8.49269 -3.85379,-13.76753 2.00323,-4.28079 5.46838,-6.70677 9.5891,-6.71342 3.78413,-0.006 3.79252,-0.48566 -0.19051,10.88937 -2.10816,6.02062 -3.69492,10.0317 -3.98746,10.07965 -0.26725,0.0438 -0.96805,-0.17582 -1.55734,-0.48807 z"
         id="path1236"
         transform="scale(0.26458333)" />
      <path
         style="fill:#c8ab37;fill-opacity:0;stroke:none;stroke-width:0.357143"
         d="m -900.91716,596.32831 c -12.77568,-2.30711 -23.97318,-10.50381 -30.02234,-21.97671 -3.34012,-6.33491 -4.83376,-12.44415 -4.83376,-19.77092 0,-5.09752 0.62933,-9.11668 2.11245,-13.49102 4.23152,-12.48049 14.27902,-22.50631 26.73822,-26.68053 9.56811,-3.20561 20.8707,-2.75658 30.0779,1.19493 0.7493,0.32158 6.38507,-10.78739 5.69043,-11.2167 -1.17909,-0.72872 -5.28997,-1.14633 -9.40082,-0.95501 -5.05918,0.23547 -10.25693,1.16642 -24.17326,4.32959 -17.21945,3.91396 -20.33063,4.42082 -20.33063,3.31213 0,-1.34034 1.27666,-4.42659 2.67753,-6.47278 0.86951,-1.27004 1.38616,-2.2352 1.14812,-2.14481 -4.10562,1.55912 -52.84281,16.75446 -53.14293,16.56897 -0.50982,-0.31508 -0.10088,-86.37862 0.413,-86.91783 0.36838,-0.38655 105.41872,30.5878 105.60176,31.13693 0.0654,0.19631 -2.98169,-0.56538 -6.7714,-1.69262 -52.70964,-15.67851 -98.20182,-28.99313 -98.39636,-28.79859 -0.13452,0.13452 -0.31306,19.52325 -0.39676,43.08608 l -0.15217,42.84151 1.56317,-0.48151 c 0.85975,-0.26483 13.05425,-4.14257 27.0989,-8.61721 24.67936,-7.86287 25.5956,-8.18629 27.32142,-9.64412 2.7442,-2.31806 7.70456,-5.43111 11.34945,-7.12276 8.7226,-4.04829 16.40317,-5.41282 22.40055,-3.97967 2.20809,0.52765 2.43046,0.51871 4.55454,-0.18313 1.22821,-0.40583 2.43357,-0.66809 2.67857,-0.58279 0.24501,0.0853 -0.47669,0.44871 -1.60377,0.80758 -1.12709,0.35887 -2.00111,0.70063 -1.94228,0.75947 0.0588,0.0588 3.62334,0.91395 7.92112,1.90028 6.03497,1.385 7.88078,1.6917 8.10684,1.34703 0.16099,-0.24546 2.94275,-5.61329 6.1817,-11.92852 4.87721,-9.50948 5.889,-11.74191 5.889,-12.99356 0,-1.95434 1.10612,-3.73804 2.8789,-4.64245 1.76835,-0.90214 3.30038,-0.89118 4.92962,0.0353 1.8455,1.04943 2.65601,2.31654 2.82425,4.41522 0.18577,2.3175 -0.84156,3.97051 -3.19316,5.13789 -1.66277,0.82543 -1.67865,0.85094 -7.08089,11.37098 -2.97791,5.79903 -5.36169,10.58735 -5.29727,10.6407 0.1546,0.12807 14.137,3.03105 22.25998,4.62154 7.01288,1.37314 21.16866,3.77067 27.67857,4.68786 2.25893,0.31826 4.42908,0.64122 4.82256,0.71768 0.51883,0.10083 0.82927,0.60937 1.12981,1.85078 0.22791,0.94146 2.28057,5.85311 4.56147,10.91478 3.35525,7.44585 4.07716,9.33367 3.7809,9.88724 -0.20139,0.37631 -0.36617,1.01444 -0.36617,1.41808 0,0.63255 1.84809,4.26584 4.8411,9.51743 l 0.82887,1.45436 -5.2457,0.61734 c -6.2003,0.72968 -8.00012,1.43703 -9.11301,3.58152 -0.64182,1.23676 -0.67167,1.56047 -0.27955,3.03138 0.65889,2.4716 1.5131,3.69393 3.27226,4.68247 1.35273,0.76015 2.04515,0.89275 4.65868,0.89208 l 3.0698,-7.1e-4 -0.50076,1.19849 c -0.59326,1.41986 -0.35185,2.85482 0.70668,4.20052 l 0.7604,0.9667 -4.62438,-0.21365 c -12.85323,-0.59383 -24.68046,-5.1407 -31.77973,-12.21743 -3.12932,-3.1194 -5.07337,-6.25965 -5.57458,-9.00475 -1.80734,-9.89878 -7.31911,-17.53468 -17.52566,-24.27968 -2.86593,-1.89396 -10.45386,-5.82162 -12.85132,-6.6521 -0.48961,-0.1696 -1.23858,1.00105 -3.87528,6.05706 -1.7976,3.447 -3.13163,6.38322 -2.96452,6.52492 0.16711,0.1417 1.34849,1.07752 2.62527,2.07959 4.67239,3.6671 8.4191,8.21963 11.20677,13.61705 14.67693,28.41725 -5.97429,62.04689 -37.94998,61.79993 -2.28231,-0.0176 -5.41976,-0.26141 -6.97212,-0.54174 z m 14.55907,-20.15456 c 6.89849,-2.32799 12.41088,-7.99521 14.57648,-14.98593 1.24534,-4.02003 1.16122,-9.81429 -0.19956,-13.74657 -1.24302,-3.59197 -2.86747,-6.26785 -5.25881,-8.66256 l -1.87078,-1.87342 -0.86779,1.51627 c -0.47728,0.83395 -2.2323,4.24842 -3.90003,7.58771 -5.18422,10.3803 -5.81792,11.25 -8.1972,11.25 -1.25377,0 -3.34033,-2.12498 -3.34033,-3.40185 0,-0.54991 2.17894,-5.21438 5.00921,-10.72323 2.75506,-5.36247 4.86415,-9.8396 4.68686,-9.94917 -0.91301,-0.56428 -5.21966,-1.27297 -7.76395,-1.27762 -9.63078,-0.0176 -18.21127,6.00537 -21.52672,15.11039 -0.83974,2.30614 -0.93324,3.06384 -0.93324,7.56291 0,4.49906 0.0935,5.25676 0.93324,7.56291 2.58793,7.10709 8.40402,12.43298 15.743,14.41609 3.58283,0.96815 9.41365,0.79384 12.90962,-0.38593 z m 41.13678,-106.2197 c 1.06077,-1.06076 1.11975,-2.2894 0.16799,-3.49936 -0.93034,-1.18273 -2.24854,-1.4896 -3.53688,-0.82337 -1.66465,0.86082 -1.97485,2.67394 -0.72856,4.25833 0.99417,1.26389 2.86851,1.29335 4.09745,0.0644 z"
         id="path1240"
         transform="scale(0.26458333)" />
      <path
         style="fill:#c8ab37;fill-opacity:0;stroke:none;stroke-width:0.357143"
         d="m -900.91716,596.32831 c -12.77568,-2.30711 -23.97318,-10.50381 -30.02234,-21.97671 -3.34012,-6.33491 -4.83376,-12.44415 -4.83376,-19.77092 0,-5.09752 0.62933,-9.11668 2.11245,-13.49102 4.23152,-12.48049 14.27902,-22.50631 26.73822,-26.68053 9.56811,-3.20561 20.8707,-2.75658 30.0779,1.19493 0.7493,0.32158 6.38507,-10.78739 5.69043,-11.2167 -1.17909,-0.72872 -5.28997,-1.14633 -9.40082,-0.95501 -5.05918,0.23547 -10.25693,1.16642 -24.17326,4.32959 -17.21945,3.91396 -20.33063,4.42082 -20.33063,3.31213 0,-1.34034 1.27666,-4.42659 2.67753,-6.47278 0.86951,-1.27004 1.38616,-2.2352 1.14812,-2.14481 -4.10562,1.55912 -52.84281,16.75446 -53.14293,16.56897 -0.50982,-0.31508 -0.10088,-86.37862 0.413,-86.91783 0.36838,-0.38655 105.41872,30.5878 105.60176,31.13693 0.0654,0.19631 -2.98169,-0.56538 -6.7714,-1.69262 -52.70964,-15.67851 -98.20182,-28.99313 -98.39636,-28.79859 -0.13452,0.13452 -0.31306,19.52325 -0.39676,43.08608 l -0.15217,42.84151 1.56317,-0.48151 c 0.85975,-0.26483 13.05425,-4.14257 27.0989,-8.61721 24.67936,-7.86287 25.5956,-8.18629 27.32142,-9.64412 2.7442,-2.31806 7.70456,-5.43111 11.34945,-7.12276 8.7226,-4.04829 16.40317,-5.41282 22.40055,-3.97967 2.20809,0.52765 2.43046,0.51871 4.55454,-0.18313 1.22821,-0.40583 2.43357,-0.66809 2.67857,-0.58279 0.24501,0.0853 -0.47669,0.44871 -1.60377,0.80758 -1.12709,0.35887 -2.00111,0.70063 -1.94228,0.75947 0.0588,0.0588 3.62334,0.91395 7.92112,1.90028 6.03497,1.385 7.88078,1.6917 8.10684,1.34703 0.16099,-0.24546 2.94275,-5.61329 6.1817,-11.92852 4.87721,-9.50948 5.889,-11.74191 5.889,-12.99356 0,-1.95434 1.10612,-3.73804 2.8789,-4.64245 1.76835,-0.90214 3.30038,-0.89118 4.92962,0.0353 1.8455,1.04943 2.65601,2.31654 2.82425,4.41522 0.18577,2.3175 -0.84156,3.97051 -3.19316,5.13789 -1.66277,0.82543 -1.67865,0.85094 -7.08089,11.37098 -2.97791,5.79903 -5.36169,10.58735 -5.29727,10.6407 0.1546,0.12807 14.137,3.03105 22.25998,4.62154 7.01288,1.37314 21.16866,3.77067 27.67857,4.68786 2.25893,0.31826 4.42908,0.64122 4.82256,0.71768 0.51883,0.10083 0.82927,0.60937 1.12981,1.85078 0.22791,0.94146 2.28057,5.85311 4.56147,10.91478 3.35525,7.44585 4.07716,9.33367 3.7809,9.88724 -0.20139,0.37631 -0.36617,1.01444 -0.36617,1.41808 0,0.63255 1.84809,4.26584 4.8411,9.51743 l 0.82887,1.45436 -5.2457,0.61734 c -6.2003,0.72968 -8.00012,1.43703 -9.11301,3.58152 -0.64182,1.23676 -0.67167,1.56047 -0.27955,3.03138 0.65889,2.4716 1.5131,3.69393 3.27226,4.68247 1.35273,0.76015 2.04515,0.89275 4.65868,0.89208 l 3.0698,-7.1e-4 -0.50076,1.19849 c -0.59326,1.41986 -0.35185,2.85482 0.70668,4.20052 l 0.7604,0.9667 -4.62438,-0.21365 c -12.85323,-0.59383 -24.68046,-5.1407 -31.77973,-12.21743 -3.12932,-3.1194 -5.07337,-6.25965 -5.57458,-9.00475 -1.80734,-9.89878 -7.31911,-17.53468 -17.52566,-24.27968 -2.86593,-1.89396 -10.45386,-5.82162 -12.85132,-6.6521 -0.48961,-0.1696 -1.23858,1.00105 -3.87528,6.05706 -1.7976,3.447 -3.13163,6.38322 -2.96452,6.52492 0.16711,0.1417 1.34849,1.07752 2.62527,2.07959 4.67239,3.6671 8.4191,8.21963 11.20677,13.61705 14.67693,28.41725 -5.97429,62.04689 -37.94998,61.79993 -2.28231,-0.0176 -5.41976,-0.26141 -6.97212,-0.54174 z m 14.55907,-20.15456 c 6.89849,-2.32799 12.41088,-7.99521 14.57648,-14.98593 1.24534,-4.02003 1.16122,-9.81429 -0.19956,-13.74657 -1.24302,-3.59197 -2.86747,-6.26785 -5.25881,-8.66256 l -1.87078,-1.87342 -0.86779,1.51627 c -0.47728,0.83395 -2.2323,4.24842 -3.90003,7.58771 -5.18422,10.3803 -5.81792,11.25 -8.1972,11.25 -1.25377,0 -3.34033,-2.12498 -3.34033,-3.40185 0,-0.54991 2.17894,-5.21438 5.00921,-10.72323 2.75506,-5.36247 4.86415,-9.8396 4.68686,-9.94917 -0.91301,-0.56428 -5.21966,-1.27297 -7.76395,-1.27762 -9.63078,-0.0176 -18.21127,6.00537 -21.52672,15.11039 -0.83974,2.30614 -0.93324,3.06384 -0.93324,7.56291 0,4.49906 0.0935,5.25676 0.93324,7.56291 2.58793,7.10709 8.40402,12.43298 15.743,14.41609 3.58283,0.96815 9.41365,0.79384 12.90962,-0.38593 z m 41.13678,-106.2197 c 1.06077,-1.06076 1.11975,-2.2894 0.16799,-3.49936 -0.93034,-1.18273 -2.24854,-1.4896 -3.53688,-0.82337 -1.66465,0.86082 -1.97485,2.67394 -0.72856,4.25833 0.99417,1.26389 2.86851,1.29335 4.09745,0.0644 z"
         id="path1242"
         transform="scale(0.26458333)" />
      <path
         style="fill:#c8ab37;fill-opacity:0;stroke:none;stroke-width:0.357143"
         d="m -900.91716,596.32831 c -12.77568,-2.30711 -23.97318,-10.50381 -30.02234,-21.97671 -3.34012,-6.33491 -4.83376,-12.44415 -4.83376,-19.77092 0,-5.09752 0.62933,-9.11668 2.11245,-13.49102 4.23152,-12.48049 14.27902,-22.50631 26.73822,-26.68053 9.56811,-3.20561 20.8707,-2.75658 30.0779,1.19493 0.7493,0.32158 6.38507,-10.78739 5.69043,-11.2167 -1.17909,-0.72872 -5.28997,-1.14633 -9.40082,-0.95501 -5.05918,0.23547 -10.25693,1.16642 -24.17326,4.32959 -17.21945,3.91396 -20.33063,4.42082 -20.33063,3.31213 0,-1.34034 1.27666,-4.42659 2.67753,-6.47278 0.86951,-1.27004 1.38616,-2.2352 1.14812,-2.14481 -4.10562,1.55912 -52.84281,16.75446 -53.14293,16.56897 -0.50982,-0.31508 -0.10088,-86.37862 0.413,-86.91783 0.36838,-0.38655 105.41872,30.5878 105.60176,31.13693 0.0654,0.19631 -2.98169,-0.56538 -6.7714,-1.69262 -52.70964,-15.67851 -98.20182,-28.99313 -98.39636,-28.79859 -0.13452,0.13452 -0.31306,19.52325 -0.39676,43.08608 l -0.15217,42.84151 1.56317,-0.48151 c 0.85975,-0.26483 13.05425,-4.14257 27.0989,-8.61721 24.67936,-7.86287 25.5956,-8.18629 27.32142,-9.64412 2.7442,-2.31806 7.70456,-5.43111 11.34945,-7.12276 8.7226,-4.04829 16.40317,-5.41282 22.40055,-3.97967 2.20809,0.52765 2.43046,0.51871 4.55454,-0.18313 1.22821,-0.40583 2.43357,-0.66809 2.67857,-0.58279 0.24501,0.0853 -0.47669,0.44871 -1.60377,0.80758 -1.12709,0.35887 -2.00111,0.70063 -1.94228,0.75947 0.0588,0.0588 3.62334,0.91395 7.92112,1.90028 6.03497,1.385 7.88078,1.6917 8.10684,1.34703 0.16099,-0.24546 2.94275,-5.61329 6.1817,-11.92852 4.87721,-9.50948 5.889,-11.74191 5.889,-12.99356 0,-1.95434 1.10612,-3.73804 2.8789,-4.64245 1.76835,-0.90214 3.30038,-0.89118 4.92962,0.0353 1.8455,1.04943 2.65601,2.31654 2.82425,4.41522 0.18577,2.3175 -0.84156,3.97051 -3.19316,5.13789 -1.66277,0.82543 -1.67865,0.85094 -7.08089,11.37098 -2.97791,5.79903 -5.36169,10.58735 -5.29727,10.6407 0.1546,0.12807 14.137,3.03105 22.25998,4.62154 7.01288,1.37314 21.16866,3.77067 27.67857,4.68786 2.25893,0.31826 4.42908,0.64122 4.82256,0.71768 0.51883,0.10083 0.82927,0.60937 1.12981,1.85078 0.22791,0.94146 2.28057,5.85311 4.56147,10.91478 3.35525,7.44585 4.07716,9.33367 3.7809,9.88724 -0.20139,0.37631 -0.36617,1.01444 -0.36617,1.41808 0,0.63255 1.84809,4.26584 4.8411,9.51743 l 0.82887,1.45436 -5.2457,0.61734 c -6.2003,0.72968 -8.00012,1.43703 -9.11301,3.58152 -0.64182,1.23676 -0.67167,1.56047 -0.27955,3.03138 0.65889,2.4716 1.5131,3.69393 3.27226,4.68247 1.35273,0.76015 2.04515,0.89275 4.65868,0.89208 l 3.0698,-7.1e-4 -0.50076,1.19849 c -0.59326,1.41986 -0.35185,2.85482 0.70668,4.20052 l 0.7604,0.9667 -4.62438,-0.21365 c -12.85323,-0.59383 -24.68046,-5.1407 -31.77973,-12.21743 -3.12932,-3.1194 -5.07337,-6.25965 -5.57458,-9.00475 -1.80734,-9.89878 -7.31911,-17.53468 -17.52566,-24.27968 -2.86593,-1.89396 -10.45386,-5.82162 -12.85132,-6.6521 -0.48961,-0.1696 -1.23858,1.00105 -3.87528,6.05706 -1.7976,3.447 -3.13163,6.38322 -2.96452,6.52492 0.16711,0.1417 1.34849,1.07752 2.62527,2.07959 4.67239,3.6671 8.4191,8.21963 11.20677,13.61705 14.67693,28.41725 -5.97429,62.04689 -37.94998,61.79993 -2.28231,-0.0176 -5.41976,-0.26141 -6.97212,-0.54174 z m 14.55907,-20.15456 c 6.89849,-2.32799 12.41088,-7.99521 14.57648,-14.98593 1.24534,-4.02003 1.16122,-9.81429 -0.19956,-13.74657 -1.24302,-3.59197 -2.86747,-6.26785 -5.25881,-8.66256 l -1.87078,-1.87342 -0.86779,1.51627 c -0.47728,0.83395 -2.2323,4.24842 -3.90003,7.58771 -5.18422,10.3803 -5.81792,11.25 -8.1972,11.25 -1.25377,0 -3.34033,-2.12498 -3.34033,-3.40185 0,-0.54991 2.17894,-5.21438 5.00921,-10.72323 2.75506,-5.36247 4.86415,-9.8396 4.68686,-9.94917 -0.91301,-0.56428 -5.21966,-1.27297 -7.76395,-1.27762 -9.63078,-0.0176 -18.21127,6.00537 -21.52672,15.11039 -0.83974,2.30614 -0.93324,3.06384 -0.93324,7.56291 0,4.49906 0.0935,5.25676 0.93324,7.56291 2.58793,7.10709 8.40402,12.43298 15.743,14.41609 3.58283,0.96815 9.41365,0.79384 12.90962,-0.38593 z m 41.13678,-106.2197 c 1.06077,-1.06076 1.11975,-2.2894 0.16799,-3.49936 -0.93034,-1.18273 -2.24854,-1.4896 -3.53688,-0.82337 -1.66465,0.86082 -1.97485,2.67394 -0.72856,4.25833 0.99417,1.26389 2.86851,1.29335 4.09745,0.0644 z"
         id="path1244"
         transform="scale(0.26458333)" />
      <path
         style="fill:#c8ab37;fill-opacity:0;stroke:none;stroke-width:0.357143"
         d="m -793.05516,525.7125 c -0.2649,-0.6225 -2.27055,-5.10455 -4.45701,-9.9601 -3.61779,-8.03418 -3.97537,-9.0181 -3.97537,-10.93853 0,-2.77557 0.62671,-4.16243 3.26748,-7.23069 1.53315,-1.78134 2.74064,-2.80253 4.01599,-3.39637 l 1.82367,-0.84916 26.09059,-0.003 26.09059,-0.003 1.84806,0.92092 c 2.08867,1.04083 3.76308,2.94228 4.54665,5.16315 0.65323,1.85146 0.72665,9.43088 0.11125,11.48491 -0.584,1.9492 -2.9598,4.51714 -5.1021,5.51473 l -1.79933,0.83788 -16.51785,0.004 c -9.08482,0.002 -16.51786,0.0712 -16.51786,0.15387 0,0.0827 0.88393,2.10433 1.96429,4.49246 1.08035,2.38814 1.96428,4.4264 1.96428,4.52946 0,0.10307 -0.54983,-0.29536 -1.22184,-0.8854 -2.10118,-1.84485 -3.82473,-1.98593 -11.8279,-0.96817 -4.61912,0.58741 -7.44541,1.11811 -8.39311,1.57598 l -1.42885,0.69035 z"
         id="path1246"
         transform="scale(0.26458333)" />
      <path
         style="fill:#c8ab37;fill-opacity:0;stroke:none;stroke-width:0.357143"
         d="m -736.31213,495.11129 c -0.12313,-0.19924 -0.89601,-0.72156 -1.7175,-1.16072 -1.48004,-0.7912 -1.66866,-0.80009 -20.73163,-0.97704 l -19.23801,-0.17857 -1.55309,-4.02184 -1.55308,-4.02183 6.05607,-10.18676 c 7.54147,-12.68532 7.24226,-12.09064 7.26965,-14.44814 0.0821,-7.06613 -9.05031,-9.88472 -14.68916,-4.5336 -0.63795,0.6054 -2.23962,2.9152 -3.55927,5.13289 -1.31965,2.21769 -2.51052,3.91419 -2.64638,3.77001 -0.54661,-0.58014 -4.95573,-12.94065 -4.95388,-13.8877 0.006,-2.81355 1.73357,-5.61416 4.24991,-6.88773 0.7061,-0.35736 6.4153,-2.0551 12.68712,-3.77275 12.50878,-3.42575 13.81751,-3.58223 16.88262,-2.01853 3.44528,1.75765 3.41128,1.68599 13.95212,29.4101 5.32524,14.00624 9.79039,26.06856 9.92256,26.80517 0.23385,1.30323 0.0759,1.71149 -0.37805,0.97704 z"
         id="path1248"
         transform="scale(0.26458333)" />
      <path
         style="fill:#c8ab37;fill-opacity:0;stroke:none;stroke-width:0.357143"
         d="m -736.31213,495.11129 c -0.12313,-0.19924 -0.89601,-0.72156 -1.7175,-1.16072 -1.48004,-0.7912 -1.66866,-0.80009 -20.73163,-0.97704 l -19.23801,-0.17857 -1.55309,-4.02184 -1.55308,-4.02183 6.05607,-10.18676 c 7.54147,-12.68532 7.24226,-12.09064 7.26965,-14.44814 0.0821,-7.06613 -9.05031,-9.88472 -14.68916,-4.5336 -0.63795,0.6054 -2.23962,2.9152 -3.55927,5.13289 -1.31965,2.21769 -2.51052,3.91419 -2.64638,3.77001 -0.54661,-0.58014 -4.95573,-12.94065 -4.95388,-13.8877 0.006,-2.81355 1.73357,-5.61416 4.24991,-6.88773 0.7061,-0.35736 6.4153,-2.0551 12.68712,-3.77275 12.50878,-3.42575 13.81751,-3.58223 16.88262,-2.01853 3.44528,1.75765 3.41128,1.68599 13.95212,29.4101 5.32524,14.00624 9.79039,26.06856 9.92256,26.80517 0.23385,1.30323 0.0759,1.71149 -0.37805,0.97704 z"
         id="path1250"
         transform="scale(0.26458333)" />
      <path
         style="fill:#c8ab37;fill-opacity:0;stroke:none;stroke-width:0.357143"
         d="m -736.31213,495.11129 c -0.12313,-0.19924 -0.89601,-0.72156 -1.7175,-1.16072 -1.48004,-0.7912 -1.66866,-0.80009 -20.73163,-0.97704 l -19.23801,-0.17857 -1.55309,-4.02184 -1.55308,-4.02183 6.05607,-10.18676 c 7.54147,-12.68532 7.24226,-12.09064 7.26965,-14.44814 0.0821,-7.06613 -9.05031,-9.88472 -14.68916,-4.5336 -0.63795,0.6054 -2.23962,2.9152 -3.55927,5.13289 -1.31965,2.21769 -2.51052,3.91419 -2.64638,3.77001 -0.54661,-0.58014 -4.95573,-12.94065 -4.95388,-13.8877 0.006,-2.81355 1.73357,-5.61416 4.24991,-6.88773 0.7061,-0.35736 6.4153,-2.0551 12.68712,-3.77275 12.50878,-3.42575 13.81751,-3.58223 16.88262,-2.01853 3.44528,1.75765 3.41128,1.68599 13.95212,29.4101 5.32524,14.00624 9.79039,26.06856 9.92256,26.80517 0.23385,1.30323 0.0759,1.71149 -0.37805,0.97704 z"
         id="path1252"
         transform="scale(0.26458333)" />
      <path
         style="fill:none;fill-rule:evenodd;stroke:#000000;stroke-width:0.264583px;stroke-linecap:butt;stroke-linejoin:miter;stroke-opacity:1"
         d="m -465.92759,123.07002 v 0"
         id="path1262"
         inkscape:connector-type="polyline"
         inkscape:connector-curvature="0" />
      <path
         style="fill:none;fill-rule:evenodd;stroke:#000000;stroke-width:0.264583px;stroke-linecap:butt;stroke-linejoin:miter;stroke-opacity:1"
         d="m -231.99071,129.11924 2.2867,-6.53939"
         id="path1266"
         inkscape:connector-type="polyline"
         inkscape:connector-curvature="0" />
      <path
         style="fill:url(#radialGradient1276);fill-opacity:1;stroke:none;stroke-width:0.0936368"
         d="m -254.22371,126.64504 c 0.0188,-6.16233 0.0572,-11.22738 0.085,-11.25566 0.0478,-0.0488 26.98957,8.03163 27.07744,8.12113 0.059,0.06 -0.0495,0.0669 -0.70569,0.0449 -0.87102,-0.0292 -1.45139,0.20592 -2.07428,0.84025 -0.65854,0.67065 -0.9431,1.37002 -0.94517,2.3229 -0.002,1.11793 0.47366,2.01349 1.28228,2.41214 0.3527,0.17389 0.40904,0.23833 0.35761,0.40904 -0.0744,0.24731 0.0249,0.18924 -0.70777,0.41331 -0.58147,0.17783 -0.66251,0.1813 -1.20623,0.0517 -0.79484,-0.18942 -2.47091,-0.11523 -3.45532,0.15295 -1.75551,0.47825 -3.9999,1.63369 -5.2217,2.68825 l -0.5784,0.4992 -6.79821,2.20564 c -3.739,1.2131 -6.87598,2.22652 -6.97107,2.25204 -0.16808,0.0451 -0.17195,-0.26472 -0.13844,-11.15785 z"
         id="path1268" />
    </g>
    <text
       xml:space="preserve"
       id="text14"
       style="font-style:normal;font-weight:normal;font-size:10.5833px;line-height:1.25;font-family:sans-serif;white-space:pre;shape-inside:url(#rect16);fill:#000000;fill-opacity:1;stroke:none;" />
    <text
       xml:space="preserve"
       id="text861"
       style="font-style:normal;font-weight:normal;font-size:10.5833px;line-height:1.25;font-family:sans-serif;white-space:pre;shape-inside:url(#rect863);fill:#000000;fill-opacity:1;stroke:none;" />
    <text
       xml:space="preserve"
       style="font-style:normal;font-weight:normal;font-size:10.5833px;line-height:1.25;font-family:sans-serif;fill:#000000;fill-opacity:1;stroke:none;stroke-width:0.264583"
       x="-115.90075"
       y="144.18903"
       id="text873"><tspan
         sodipodi:role="line"
         id="tspan871"
         x="-115.90075"
         y="144.18903"
         style="stroke-width:0.264583" /></text>
    <text
       xml:space="preserve"
       style="font-style:normal;font-weight:normal;font-size:10.5833px;line-height:1.25;font-family:sans-serif;fill:#000000;fill-opacity:1;stroke:none;stroke-width:0.264583"
       x="-227.7498"
       y="285.49606"
       id="text893"><tspan
         sodipodi:role="line"
         id="tspan891"
         x="-227.7498"
         y="285.49606"
         style="stroke-width:0.264583" /></text>
    <g
       id="g1078" />
    <path
       style="fill:#c8ab37;fill-opacity:0;stroke:none;stroke-width:0.357143"
       d=""
       id="path1238"
       transform="scale(0.26458333)" />
    <text
       xml:space="preserve"
       style="font-style:normal;font-weight:normal;font-size:10.5833px;line-height:1.25;font-family:sans-serif;fill:#000000;fill-opacity:1;stroke:none;stroke-width:0.264583"
       x="207.46385"
       y="242.64951"
       id="text1375"><tspan
         sodipodi:role="line"
         id="tspan1373"
         x="207.46385"
         y="242.64951"
         style="stroke-width:0.264583" /></text>
    <text
       xml:space="preserve"
       id="text1415"
       style="font-style:normal;font-weight:normal;font-size:10.5833px;line-height:1.25;font-family:sans-serif;white-space:pre;shape-inside:url(#rect1417);fill:#000000;fill-opacity:1;stroke:none;" />
    <path
       style="fill:#28220b;fill-opacity:0;stroke:none;stroke-width:0.112433"
       d="m -200.96354,311.25112 c 0.023,-7.3322 0.0692,-13.35872 0.10274,-13.39227 0.0779,-0.0779 32.93449,9.63144 32.93553,9.73272 3.1e-4,0.0416 -0.37075,0.0476 -0.82484,0.0132 -1.18129,-0.0893 -1.85358,0.15503 -2.66853,0.96997 -1.06611,1.06612 -1.4412,2.63426 -0.96327,4.02721 0.24306,0.7084 0.98599,1.51669 1.57172,1.71 0.73647,0.24305 0.53289,0.52858 -0.62425,0.87555 -0.70439,0.21121 -0.80297,0.21534 -1.46163,0.0612 -0.96312,-0.22538 -2.99407,-0.1371 -4.18691,0.18199 -2.12722,0.56903 -4.84679,1.94383 -6.3273,3.19858 l -0.70085,0.59398 -8.23758,2.62436 c -4.53067,1.4434 -8.33185,2.6492 -8.44708,2.67957 -0.20368,0.0537 -0.20834,-0.31498 -0.16775,-13.27608 z"
       id="path1493" />
    <path
       style="fill:#28220b;fill-opacity:0;stroke:none;stroke-width:0.112433"
       d="m -200.96354,311.25112 c 0.023,-7.3322 0.0692,-13.35872 0.10274,-13.39227 0.0779,-0.0779 32.93449,9.63144 32.93553,9.73272 3.1e-4,0.0416 -0.37075,0.0476 -0.82484,0.0132 -1.18129,-0.0893 -1.85358,0.15503 -2.66853,0.96997 -1.06611,1.06612 -1.4412,2.63426 -0.96327,4.02721 0.24306,0.7084 0.98599,1.51669 1.57172,1.71 0.73647,0.24305 0.53289,0.52858 -0.62425,0.87555 -0.70439,0.21121 -0.80297,0.21534 -1.46163,0.0612 -0.96312,-0.22538 -2.99407,-0.1371 -4.18691,0.18199 -2.12722,0.56903 -4.84679,1.94383 -6.3273,3.19858 l -0.70085,0.59398 -8.23758,2.62436 c -4.53067,1.4434 -8.33185,2.6492 -8.44708,2.67957 -0.20368,0.0537 -0.20834,-0.31498 -0.16775,-13.27608 z"
       id="path1495" />
    <path
       style="fill:#28220b;fill-opacity:0;stroke:none;stroke-width:0.112433"
       d="m -200.96354,311.25112 c 0.023,-7.3322 0.0692,-13.35872 0.10274,-13.39227 0.0779,-0.0779 32.93449,9.63144 32.93553,9.73272 3.1e-4,0.0416 -0.37075,0.0476 -0.82484,0.0132 -1.18129,-0.0893 -1.85358,0.15503 -2.66853,0.96997 -1.06611,1.06612 -1.4412,2.63426 -0.96327,4.02721 0.24306,0.7084 0.98599,1.51669 1.57172,1.71 0.73647,0.24305 0.53289,0.52858 -0.62425,0.87555 -0.70439,0.21121 -0.80297,0.21534 -1.46163,0.0612 -0.96312,-0.22538 -2.99407,-0.1371 -4.18691,0.18199 -2.12722,0.56903 -4.84679,1.94383 -6.3273,3.19858 l -0.70085,0.59398 -8.23758,2.62436 c -4.53067,1.4434 -8.33185,2.6492 -8.44708,2.67957 -0.20368,0.0537 -0.20834,-0.31498 -0.16775,-13.27608 z"
       id="path1497" />
    <path
       style="fill:#28220b;fill-opacity:0;stroke:none;stroke-width:0.112433"
       d="m -200.96354,311.25112 c 0.023,-7.3322 0.0692,-13.35872 0.10274,-13.39227 0.0779,-0.0779 32.93449,9.63144 32.93553,9.73272 3.1e-4,0.0416 -0.37075,0.0476 -0.82484,0.0132 -1.18129,-0.0893 -1.85358,0.15503 -2.66853,0.96997 -1.06611,1.06612 -1.4412,2.63426 -0.96327,4.02721 0.24306,0.7084 0.98599,1.51669 1.57172,1.71 0.73647,0.24305 0.53289,0.52858 -0.62425,0.87555 -0.70439,0.21121 -0.80297,0.21534 -1.46163,0.0612 -0.96312,-0.22538 -2.99407,-0.1371 -4.18691,0.18199 -2.12722,0.56903 -4.84679,1.94383 -6.3273,3.19858 l -0.70085,0.59398 -8.23758,2.62436 c -4.53067,1.4434 -8.33185,2.6492 -8.44708,2.67957 -0.20368,0.0537 -0.20834,-0.31498 -0.16775,-13.27608 z"
       id="path1499" />
    <path
       style="fill:#28220b;fill-opacity:0;stroke:none;stroke-width:0.112433"
       d="m -200.96354,311.25112 c 0.023,-7.3322 0.0692,-13.35872 0.10274,-13.39227 0.0779,-0.0779 32.93449,9.63144 32.93553,9.73272 3.1e-4,0.0416 -0.37075,0.0476 -0.82484,0.0132 -1.18129,-0.0893 -1.85358,0.15503 -2.66853,0.96997 -1.06611,1.06612 -1.4412,2.63426 -0.96327,4.02721 0.24306,0.7084 0.98599,1.51669 1.57172,1.71 0.73647,0.24305 0.53289,0.52858 -0.62425,0.87555 -0.70439,0.21121 -0.80297,0.21534 -1.46163,0.0612 -0.96312,-0.22538 -2.99407,-0.1371 -4.18691,0.18199 -2.12722,0.56903 -4.84679,1.94383 -6.3273,3.19858 l -0.70085,0.59398 -8.23758,2.62436 c -4.53067,1.4434 -8.33185,2.6492 -8.44708,2.67957 -0.20368,0.0537 -0.20834,-0.31498 -0.16775,-13.27608 z"
       id="path1501" />
    <path
       style="fill:#28220b;fill-opacity:0;stroke:none;stroke-width:0.112433"
       d="m -178.08877,349.21657 c -4.02194,-0.7263 -7.54706,-3.30673 -9.45141,-6.91854 -1.05151,-1.99431 -1.52173,-3.91757 -1.52173,-6.22413 0,-1.60476 0.19813,-2.87004 0.66503,-4.24714 1.33214,-3.92901 4.49521,-7.08527 8.41752,-8.39936 3.01216,-1.00917 6.57036,-0.86781 9.4689,0.37618 0.23589,0.10123 2.0101,-3.39601 1.79142,-3.53116 -0.37119,-0.22941 -1.66535,-0.36088 -2.9595,-0.30065 -1.59269,0.0741 -3.22901,0.3672 -7.61004,1.36301 -5.4209,1.23216 -6.40033,1.39173 -6.40033,1.0427 0,-0.42196 0.4019,-1.39355 0.84292,-2.03771 0.27373,-0.39983 0.43638,-0.70367 0.36144,-0.67521 -1.2925,0.49083 -16.63557,5.27451 -16.73006,5.21611 -0.16049,-0.0992 -0.0318,-27.19306 0.13002,-27.36281 0.11597,-0.12169 33.18712,9.62942 33.24475,9.80229 0.0206,0.0618 -0.93868,-0.17799 -2.13172,-0.53285 -16.59365,-4.93579 -30.91516,-9.1274 -30.9764,-9.06616 -0.0423,0.0423 -0.0986,6.14616 -0.1249,13.56403 l -0.0479,13.48704 0.49211,-0.15158 c 0.27066,-0.0834 4.10964,-1.30413 8.53107,-2.71281 7.76936,-2.47533 8.05781,-2.57714 8.60112,-3.03609 0.86391,-0.72975 2.42549,-1.70978 3.57295,-2.24233 2.74598,-1.27445 5.16392,-1.70402 7.05197,-1.25285 0.69513,0.16611 0.76514,0.1633 1.43382,-0.0577 0.38666,-0.12776 0.76612,-0.21032 0.84325,-0.18347 0.0771,0.0269 -0.15007,0.14126 -0.50489,0.25424 -0.35482,0.11297 -0.62997,0.22056 -0.61145,0.23909 0.0185,0.0185 1.14067,0.28772 2.49367,0.59823 1.89988,0.43601 2.48096,0.53257 2.55213,0.42406 0.0507,-0.0773 0.92641,-1.76713 1.94608,-3.75524 1.5354,-2.99371 1.85393,-3.6965 1.85393,-4.09054 0,-0.61525 0.34822,-1.17678 0.90631,-1.4615 0.5567,-0.284 1.039,-0.28055 1.5519,0.0111 0.58099,0.33038 0.83615,0.72928 0.88911,1.38997 0.0585,0.72958 -0.26493,1.24997 -1.00524,1.61747 -0.52346,0.25986 -0.52846,0.26789 -2.22915,3.57973 -0.93749,1.8256 -1.68793,3.33303 -1.66765,3.34982 0.0487,0.0403 4.4505,0.95421 7.00772,1.45492 2.20774,0.43228 6.66415,1.18705 8.71355,1.4758 0.71114,0.10019 1.39433,0.20186 1.51821,0.22593 0.16333,0.0317 0.26106,0.19184 0.35567,0.58265 0.0718,0.29638 0.71796,1.84263 1.43601,3.43611 1.05628,2.34404 1.28354,2.93835 1.19028,3.11262 -0.0634,0.11847 -0.11528,0.31936 -0.11528,0.44643 0,0.19914 0.5818,1.34294 1.52404,2.99621 l 0.26094,0.45785 -1.65141,0.19434 c -1.95193,0.22972 -2.51854,0.4524 -2.86889,1.12751 -0.20205,0.38935 -0.21145,0.49126 -0.088,0.95432 0.20743,0.77809 0.47634,1.16289 1.03015,1.4741 0.42586,0.2393 0.64384,0.28105 1.46661,0.28083 l 0.96641,-2.2e-4 -0.15764,0.3773 c -0.18677,0.44699 -0.11077,0.89873 0.22247,1.32238 l 0.23938,0.30433 -1.45581,-0.0673 c -4.04636,-0.18695 -7.76972,-1.61836 -10.00465,-3.8462 -0.98515,-0.98203 -1.59716,-1.97062 -1.75495,-2.83481 -0.56897,-3.11626 -2.30415,-5.52013 -5.5173,-7.64354 -0.90223,-0.59625 -3.291,-1.83272 -4.04575,-2.09417 -0.15414,-0.0534 -0.38992,0.31514 -1.21999,1.90684 -0.5659,1.08516 -0.98587,2.00952 -0.93327,2.05413 0.0526,0.0446 0.42453,0.33921 0.82647,0.65468 1.47093,1.15444 2.65044,2.58764 3.52803,4.28681 4.62048,8.94611 -1.88078,19.53313 -11.94712,19.45539 -0.7185,-0.006 -1.70621,-0.0823 -2.19491,-0.17055 z m 4.58337,-6.3449 c 2.17173,-0.73288 3.9071,-2.51699 4.58886,-4.71776 0.39205,-1.26556 0.36557,-3.08966 -0.0628,-4.32759 -0.39132,-1.1308 -0.90272,-1.9732 -1.65554,-2.72708 l -0.58895,-0.58978 -0.27319,0.47734 c -0.15025,0.26254 -0.70275,1.33746 -1.22778,2.38871 -1.63205,3.26785 -1.83155,3.54164 -2.58058,3.54164 -0.3947,0 -1.05157,-0.66897 -1.05157,-1.07095 0,-0.17312 0.68595,-1.64155 1.57696,-3.3758 0.86733,-1.68818 1.53129,-3.09763 1.47548,-3.13213 -0.28743,-0.17764 -1.64321,-0.40074 -2.44419,-0.40221 -3.03189,-0.006 -5.73313,1.89057 -6.77688,4.75694 -0.26436,0.726 -0.29379,0.96454 -0.29379,2.3809 0,1.41636 0.0294,1.65489 0.29379,2.3809 0.81472,2.2374 2.64569,3.91405 4.95609,4.53836 1.12792,0.30479 2.96354,0.24991 4.06411,-0.12149 z m 12.95037,-33.43928 c 0.33395,-0.33394 0.35251,-0.72073 0.0529,-1.10164 -0.29288,-0.37234 -0.70787,-0.46895 -1.11346,-0.25921 -0.52405,0.27099 -0.6217,0.84179 -0.22936,1.34057 0.31298,0.39789 0.90305,0.40717 1.28993,0.0203 z"
       id="path1505" />
    <path
       style="fill:#28220b;fill-opacity:0;stroke:none;stroke-width:0.112433"
       d="m -178.08877,349.21657 c -4.02194,-0.7263 -7.54706,-3.30673 -9.45141,-6.91854 -1.05151,-1.99431 -1.52173,-3.91757 -1.52173,-6.22413 0,-1.60476 0.19813,-2.87004 0.66503,-4.24714 1.33214,-3.92901 4.49521,-7.08527 8.41752,-8.39936 3.01216,-1.00917 6.57036,-0.86781 9.4689,0.37618 0.23589,0.10123 2.0101,-3.39601 1.79142,-3.53116 -0.37119,-0.22941 -1.66535,-0.36088 -2.9595,-0.30065 -1.59269,0.0741 -3.22901,0.3672 -7.61004,1.36301 -5.4209,1.23216 -6.40033,1.39173 -6.40033,1.0427 0,-0.42196 0.4019,-1.39355 0.84292,-2.03771 0.27373,-0.39983 0.43638,-0.70367 0.36144,-0.67521 -1.2925,0.49083 -16.63557,5.27451 -16.73006,5.21611 -0.16049,-0.0992 -0.0318,-27.19306 0.13002,-27.36281 0.11597,-0.12169 33.18712,9.62942 33.24475,9.80229 0.0206,0.0618 -0.93868,-0.17799 -2.13172,-0.53285 -16.59365,-4.93579 -30.91516,-9.1274 -30.9764,-9.06616 -0.0423,0.0423 -0.0986,6.14616 -0.1249,13.56403 l -0.0479,13.48704 0.49211,-0.15158 c 0.27066,-0.0834 4.10964,-1.30413 8.53107,-2.71281 7.76936,-2.47533 8.05781,-2.57714 8.60112,-3.03609 0.86391,-0.72975 2.42549,-1.70978 3.57295,-2.24233 2.74598,-1.27445 5.16392,-1.70402 7.05197,-1.25285 0.69513,0.16611 0.76514,0.1633 1.43382,-0.0577 0.38666,-0.12776 0.76612,-0.21032 0.84325,-0.18347 0.0771,0.0269 -0.15007,0.14126 -0.50489,0.25424 -0.35482,0.11297 -0.62997,0.22056 -0.61145,0.23909 0.0185,0.0185 1.14067,0.28772 2.49367,0.59823 1.89988,0.43601 2.48096,0.53257 2.55213,0.42406 0.0507,-0.0773 0.92641,-1.76713 1.94608,-3.75524 1.5354,-2.99371 1.85393,-3.6965 1.85393,-4.09054 0,-0.61525 0.34822,-1.17678 0.90631,-1.4615 0.5567,-0.284 1.039,-0.28055 1.5519,0.0111 0.58099,0.33038 0.83615,0.72928 0.88911,1.38997 0.0585,0.72958 -0.26493,1.24997 -1.00524,1.61747 -0.52346,0.25986 -0.52846,0.26789 -2.22915,3.57973 -0.93749,1.8256 -1.68793,3.33303 -1.66765,3.34982 0.0487,0.0403 4.4505,0.95421 7.00772,1.45492 2.20774,0.43228 6.66415,1.18705 8.71355,1.4758 0.71114,0.10019 1.39433,0.20186 1.51821,0.22593 0.16333,0.0317 0.26106,0.19184 0.35567,0.58265 0.0718,0.29638 0.71796,1.84263 1.43601,3.43611 1.05628,2.34404 1.28354,2.93835 1.19028,3.11262 -0.0634,0.11847 -0.11528,0.31936 -0.11528,0.44643 0,0.19914 0.5818,1.34294 1.52404,2.99621 l 0.26094,0.45785 -1.65141,0.19434 c -1.95193,0.22972 -2.51854,0.4524 -2.86889,1.12751 -0.20205,0.38935 -0.21145,0.49126 -0.088,0.95432 0.20743,0.77809 0.47634,1.16289 1.03015,1.4741 0.42586,0.2393 0.64384,0.28105 1.46661,0.28083 l 0.96641,-2.2e-4 -0.15764,0.3773 c -0.18677,0.44699 -0.11077,0.89873 0.22247,1.32238 l 0.23938,0.30433 -1.45581,-0.0673 c -4.04636,-0.18695 -7.76972,-1.61836 -10.00465,-3.8462 -0.98515,-0.98203 -1.59716,-1.97062 -1.75495,-2.83481 -0.56897,-3.11626 -2.30415,-5.52013 -5.5173,-7.64354 -0.90223,-0.59625 -3.291,-1.83272 -4.04575,-2.09417 -0.15414,-0.0534 -0.38992,0.31514 -1.21999,1.90684 -0.5659,1.08516 -0.98587,2.00952 -0.93327,2.05413 0.0526,0.0446 0.42453,0.33921 0.82647,0.65468 1.47093,1.15444 2.65044,2.58764 3.52803,4.28681 4.62048,8.94611 -1.88078,19.53313 -11.94712,19.45539 -0.7185,-0.006 -1.70621,-0.0823 -2.19491,-0.17055 z m 4.58337,-6.3449 c 2.17173,-0.73288 3.9071,-2.51699 4.58886,-4.71776 0.39205,-1.26556 0.36557,-3.08966 -0.0628,-4.32759 -0.39132,-1.1308 -0.90272,-1.9732 -1.65554,-2.72708 l -0.58895,-0.58978 -0.27319,0.47734 c -0.15025,0.26254 -0.70275,1.33746 -1.22778,2.38871 -1.63205,3.26785 -1.83155,3.54164 -2.58058,3.54164 -0.3947,0 -1.05157,-0.66897 -1.05157,-1.07095 0,-0.17312 0.68595,-1.64155 1.57696,-3.3758 0.86733,-1.68818 1.53129,-3.09763 1.47548,-3.13213 -0.28743,-0.17764 -1.64321,-0.40074 -2.44419,-0.40221 -3.03189,-0.006 -5.73313,1.89057 -6.77688,4.75694 -0.26436,0.726 -0.29379,0.96454 -0.29379,2.3809 0,1.41636 0.0294,1.65489 0.29379,2.3809 0.81472,2.2374 2.64569,3.91405 4.95609,4.53836 1.12792,0.30479 2.96354,0.24991 4.06411,-0.12149 z m 12.95037,-33.43928 c 0.33395,-0.33394 0.35251,-0.72073 0.0529,-1.10164 -0.29288,-0.37234 -0.70787,-0.46895 -1.11346,-0.25921 -0.52405,0.27099 -0.6217,0.84179 -0.22936,1.34057 0.31298,0.39789 0.90305,0.40717 1.28993,0.0203 z"
       id="path1507" />
    <path
       style="fill:#28220b;fill-opacity:0;stroke:none;stroke-width:0.112433"
       d="m -178.08877,349.21657 c -4.02194,-0.7263 -7.54706,-3.30673 -9.45141,-6.91854 -1.05151,-1.99431 -1.52173,-3.91757 -1.52173,-6.22413 0,-1.60476 0.19813,-2.87004 0.66503,-4.24714 1.33214,-3.92901 4.49521,-7.08527 8.41752,-8.39936 3.01216,-1.00917 6.57036,-0.86781 9.4689,0.37618 0.23589,0.10123 2.0101,-3.39601 1.79142,-3.53116 -0.37119,-0.22941 -1.66535,-0.36088 -2.9595,-0.30065 -1.59269,0.0741 -3.22901,0.3672 -7.61004,1.36301 -5.4209,1.23216 -6.40033,1.39173 -6.40033,1.0427 0,-0.42196 0.4019,-1.39355 0.84292,-2.03771 0.27373,-0.39983 0.43638,-0.70367 0.36144,-0.67521 -1.2925,0.49083 -16.63557,5.27451 -16.73006,5.21611 -0.16049,-0.0992 -0.0318,-27.19306 0.13002,-27.36281 0.11597,-0.12169 33.18712,9.62942 33.24475,9.80229 0.0206,0.0618 -0.93868,-0.17799 -2.13172,-0.53285 -16.59365,-4.93579 -30.91516,-9.1274 -30.9764,-9.06616 -0.0423,0.0423 -0.0986,6.14616 -0.1249,13.56403 l -0.0479,13.48704 0.49211,-0.15158 c 0.27066,-0.0834 4.10964,-1.30413 8.53107,-2.71281 7.76936,-2.47533 8.05781,-2.57714 8.60112,-3.03609 0.86391,-0.72975 2.42549,-1.70978 3.57295,-2.24233 2.74598,-1.27445 5.16392,-1.70402 7.05197,-1.25285 0.69513,0.16611 0.76514,0.1633 1.43382,-0.0577 0.38666,-0.12776 0.76612,-0.21032 0.84325,-0.18347 0.0771,0.0269 -0.15007,0.14126 -0.50489,0.25424 -0.35482,0.11297 -0.62997,0.22056 -0.61145,0.23909 0.0185,0.0185 1.14067,0.28772 2.49367,0.59823 1.89988,0.43601 2.48096,0.53257 2.55213,0.42406 0.0507,-0.0773 0.92641,-1.76713 1.94608,-3.75524 1.5354,-2.99371 1.85393,-3.6965 1.85393,-4.09054 0,-0.61525 0.34822,-1.17678 0.90631,-1.4615 0.5567,-0.284 1.039,-0.28055 1.5519,0.0111 0.58099,0.33038 0.83615,0.72928 0.88911,1.38997 0.0585,0.72958 -0.26493,1.24997 -1.00524,1.61747 -0.52346,0.25986 -0.52846,0.26789 -2.22915,3.57973 -0.93749,1.8256 -1.68793,3.33303 -1.66765,3.34982 0.0487,0.0403 4.4505,0.95421 7.00772,1.45492 2.20774,0.43228 6.66415,1.18705 8.71355,1.4758 0.71114,0.10019 1.39433,0.20186 1.51821,0.22593 0.16333,0.0317 0.26106,0.19184 0.35567,0.58265 0.0718,0.29638 0.71796,1.84263 1.43601,3.43611 1.05628,2.34404 1.28354,2.93835 1.19028,3.11262 -0.0634,0.11847 -0.11528,0.31936 -0.11528,0.44643 0,0.19914 0.5818,1.34294 1.52404,2.99621 l 0.26094,0.45785 -1.65141,0.19434 c -1.95193,0.22972 -2.51854,0.4524 -2.86889,1.12751 -0.20205,0.38935 -0.21145,0.49126 -0.088,0.95432 0.20743,0.77809 0.47634,1.16289 1.03015,1.4741 0.42586,0.2393 0.64384,0.28105 1.46661,0.28083 l 0.96641,-2.2e-4 -0.15764,0.3773 c -0.18677,0.44699 -0.11077,0.89873 0.22247,1.32238 l 0.23938,0.30433 -1.45581,-0.0673 c -4.04636,-0.18695 -7.76972,-1.61836 -10.00465,-3.8462 -0.98515,-0.98203 -1.59716,-1.97062 -1.75495,-2.83481 -0.56897,-3.11626 -2.30415,-5.52013 -5.5173,-7.64354 -0.90223,-0.59625 -3.291,-1.83272 -4.04575,-2.09417 -0.15414,-0.0534 -0.38992,0.31514 -1.21999,1.90684 -0.5659,1.08516 -0.98587,2.00952 -0.93327,2.05413 0.0526,0.0446 0.42453,0.33921 0.82647,0.65468 1.47093,1.15444 2.65044,2.58764 3.52803,4.28681 4.62048,8.94611 -1.88078,19.53313 -11.94712,19.45539 -0.7185,-0.006 -1.70621,-0.0823 -2.19491,-0.17055 z m 4.58337,-6.3449 c 2.17173,-0.73288 3.9071,-2.51699 4.58886,-4.71776 0.39205,-1.26556 0.36557,-3.08966 -0.0628,-4.32759 -0.39132,-1.1308 -0.90272,-1.9732 -1.65554,-2.72708 l -0.58895,-0.58978 -0.27319,0.47734 c -0.15025,0.26254 -0.70275,1.33746 -1.22778,2.38871 -1.63205,3.26785 -1.83155,3.54164 -2.58058,3.54164 -0.3947,0 -1.05157,-0.66897 -1.05157,-1.07095 0,-0.17312 0.68595,-1.64155 1.57696,-3.3758 0.86733,-1.68818 1.53129,-3.09763 1.47548,-3.13213 -0.28743,-0.17764 -1.64321,-0.40074 -2.44419,-0.40221 -3.03189,-0.006 -5.73313,1.89057 -6.77688,4.75694 -0.26436,0.726 -0.29379,0.96454 -0.29379,2.3809 0,1.41636 0.0294,1.65489 0.29379,2.3809 0.81472,2.2374 2.64569,3.91405 4.95609,4.53836 1.12792,0.30479 2.96354,0.24991 4.06411,-0.12149 z m 12.95037,-33.43928 c 0.33395,-0.33394 0.35251,-0.72073 0.0529,-1.10164 -0.29288,-0.37234 -0.70787,-0.46895 -1.11346,-0.25921 -0.52405,0.27099 -0.6217,0.84179 -0.22936,1.34057 0.31298,0.39789 0.90305,0.40717 1.28993,0.0203 z"
       id="path1509" />
    <text
       xml:space="preserve"
       style="font-style:normal;font-weight:normal;font-size:10.5833px;line-height:1.25;font-family:sans-serif;fill:#000000;fill-opacity:1;stroke:none;stroke-width:0.264583"
       x="-140.8279"
       y="24.681074"
       id="text1650"><tspan
         sodipodi:role="line"
         id="tspan1648"
         x="-140.8279"
         y="24.681074"
         style="stroke-width:0.264583" /></text>
    <text
       xml:space="preserve"
       style="font-style:normal;font-weight:normal;font-size:10.5833px;line-height:1.25;font-family:sans-serif;fill:#000000;fill-opacity:1;stroke:none;stroke-width:0.264583"
       x="-91.921692"
       y="92.965797"
       id="text1654"><tspan
         sodipodi:role="line"
         id="tspan1652"
         x="-91.921692"
         y="92.965797"
         style="stroke-width:0.264583" /></text>
    <text
       xml:space="preserve"
       style="font-style:normal;font-weight:normal;font-size:10.5833px;line-height:1.25;font-family:sans-serif;fill:#000000;fill-opacity:1;stroke:none;stroke-width:0.264583"
       x="-72.982071"
       y="97.285538"
       id="text1658"><tspan
         sodipodi:role="line"
         id="tspan1656"
         x="-72.982071"
         y="97.285538"
         style="stroke-width:0.264583" /></text>
  </g>
</svg>
